<svg id="visual" viewBox="0 0 960 100" width="960" height="100" xmlns="http://www.w3.org/2000/svg" xmlns:xlink="http://www.w3.org/1999/xlink" version="1.1"><rect x="0" y="0" width="960" height="100" fill="#ffffff"></rect><path d="M0 50L10 50.3C20 50.7 40 51.3 60 49.5C80 47.7 100 43.3 120 41.2C140 39 160 39 180 39.5C200 40 220 41 240 41.7C260 42.3 280 42.7 300 43.5C320 44.3 340 45.7 360 47.8C380 50 400 53 420 52.3C440 51.7 460 47.3 480 45.2C500 43 520 43 540 45.3C560 47.7 580 52.3 600 54C620 55.7 640 54.3 660 52.3C680 50.3 700 47.7 720 47C740 46.3 760 47.7 780 49.3C800 51 820 53 840 51.8C860 50.7 880 46.3 900 46C920 45.7 940 49.3 950 51.2L960 53L960 101L950 101C940 101 920 101 900 101C880 101 860 101 840 101C820 101 800 101 780 101C760 101 740 101 720 101C700 101 680 101 660 101C640 101 620 101 600 101C580 101 560 101 540 101C520 101 500 101 480 101C460 101 440 101 420 101C400 101 380 101 360 101C340 101 320 101 300 101C280 101 260 101 240 101C220 101 200 101 180 101C160 101 140 101 120 101C100 101 80 101 60 101C40 101 20 101 10 101L0 101Z" fill="#a7ccfc" stroke-linecap="round" stroke-linejoin="miter"></path></svg>